<svg width="25" height="25" viewBox="0 0 25 25" fill="none" xmlns="http://www.w3.org/2000/svg">
<path fill-rule="evenodd" clip-rule="evenodd" d="M21.6469 3.35312C21.7196 3.42569 21.7774 3.5119 21.8167 3.60682C21.8561 3.70173 21.8764 3.80348 21.8764 3.90624C21.8764 4.009 21.8561 4.11076 21.8167 4.20567C21.7774 4.30058 21.7196 4.3868 21.6469 4.45937L4.45939 21.6469C4.31269 21.7936 4.11372 21.876 3.90626 21.876C3.6988 21.876 3.49983 21.7936 3.35314 21.6469C3.20644 21.5002 3.12402 21.3012 3.12402 21.0937C3.12402 20.8863 3.20644 20.6873 3.35314 20.5406L20.5406 3.35312C20.6132 3.28036 20.6994 3.22264 20.7943 3.18325C20.8892 3.14387 20.991 3.1236 21.0938 3.1236C21.1965 3.1236 21.2983 3.14387 21.3932 3.18325C21.4881 3.22264 21.5743 3.28036 21.6469 3.35312Z" fill="#081F62"/>
<path fill-rule="evenodd" clip-rule="evenodd" d="M3.35354 3.35312C3.28079 3.42569 3.22307 3.5119 3.18368 3.60682C3.1443 3.70173 3.12402 3.80348 3.12402 3.90624C3.12402 4.009 3.1443 4.11076 3.18368 4.20567C3.22307 4.30058 3.28079 4.3868 3.35354 4.45937L20.541 21.6469C20.6877 21.7936 20.8867 21.876 21.0942 21.876C21.3016 21.876 21.5006 21.7936 21.6473 21.6469C21.794 21.5002 21.8764 21.3012 21.8764 21.0937C21.8764 20.8863 21.794 20.6873 21.6473 20.5406L4.4598 3.35312C4.38722 3.28036 4.30101 3.22264 4.2061 3.18325C4.11118 3.14387 4.00943 3.1236 3.90667 3.1236C3.80391 3.1236 3.70216 3.14387 3.60724 3.18325C3.51233 3.22264 3.42612 3.28036 3.35354 3.35312Z" fill="#081F62"/>
</svg>
