<svg width="100" height="101" viewBox="0 0 100 101" fill="none" xmlns="http://www.w3.org/2000/svg">
<g id="&#208;&#160;&#208;&#181;&#209;&#129;&#209;&#131;&#209;&#128;&#209;&#129; 3-200 1" clip-path="url(#clip0_1373_3098)">
<g id="&#208;&#168;&#208;&#176;&#209;&#128; 1">
<g id="Group">
<path id="Vector" d="M50 100.656C77.6142 100.656 100 78.2705 100 50.6562C100 23.042 77.6142 0.65625 50 0.65625C22.3858 0.65625 0 23.042 0 50.6562C0 78.2705 22.3858 100.656 50 100.656Z" fill="#0B4B49"/>
<g id="Clip path group">
<mask id="mask0_1373_3098" style="mask-type:luminance" maskUnits="userSpaceOnUse" x="0" y="0" width="100" height="101">
<g id="clippath">
<path id="Vector_2" d="M50 100.656C77.6142 100.656 100 78.2705 100 50.6562C100 23.042 77.6142 0.65625 50 0.65625C22.3858 0.65625 0 23.042 0 50.6562C0 78.2705 22.3858 100.656 50 100.656Z" fill="white"/>
</g>
</mask>
<g mask="url(#mask0_1373_3098)">
<g id="Group_2">
<g id="Group_3">
<path id="Vector_3" d="M53.6 78.6562H42.4C41.37 78.6562 40.53 77.8162 40.53 76.7862V56.2562C40.53 55.2262 41.37 54.3862 42.4 54.3862H53.6C54.63 54.3862 55.47 55.2262 55.47 56.2562V76.7862C55.47 77.8162 54.63 78.6562 53.6 78.6562ZM44.27 74.9262H51.74V58.1263H44.27V74.9262ZM33.07 78.6562H21.87C20.84 78.6562 20 77.8162 20 76.7862V63.7163C20 62.6863 20.84 61.8462 21.87 61.8462H33.07C34.1 61.8462 34.94 62.6863 34.94 63.7163V76.7862C34.94 77.8162 34.1 78.6562 33.07 78.6562ZM23.74 74.9262H31.21V65.5963H23.74V74.9262ZM74.14 78.6562H62.94C61.91 78.6562 61.07 77.8162 61.07 76.7862V45.0563C61.07 44.0263 61.91 43.1862 62.94 43.1862H74.14C75.17 43.1862 76.01 44.0263 76.01 45.0563V76.7862C76.01 77.8162 75.17 78.6562 74.14 78.6562ZM64.81 74.9262H72.28V46.9263H64.81V74.9262ZM74.14 37.5962C73.11 37.5962 72.27 36.7562 72.27 35.7262V26.3962H62.94C61.91 26.3962 61.07 25.5563 61.07 24.5263C61.07 23.4963 61.91 22.6562 62.94 22.6562H74.14C75.17 22.6562 76.01 23.4963 76.01 24.5263V35.7262C76.01 36.7562 75.17 37.5962 74.14 37.5962Z" fill="white"/>
<path id="Vector_4" d="M21.87 54.3563C20.87 54.3563 20.04 53.5563 20.01 52.5463C19.98 51.5163 20.79 50.6563 21.82 50.6263C53.04 49.6563 72.44 23.6763 72.64 23.4163C73.25 22.5863 74.42 22.4063 75.25 23.0163C76.08 23.6263 76.26 24.7963 75.65 25.6263C74.82 26.7563 54.96 53.3363 21.94 54.3563H21.88H21.87Z" fill="white"/>
</g>
</g>
</g>
</g>
</g>
</g>
</g>
<defs>
<clipPath id="clip0_1373_3098">
<rect width="100" height="100" fill="white" transform="translate(0 0.65625)"/>
</clipPath>
</defs>
</svg>
