<svg width="100" height="101" viewBox="0 0 100 101" fill="none" xmlns="http://www.w3.org/2000/svg">
<g id="&#208;&#160;&#208;&#181;&#209;&#129;&#209;&#131;&#209;&#128;&#209;&#129; 2-200 1" clip-path="url(#clip0_1373_3082)">
<g id="&#208;&#168;&#208;&#176;&#209;&#128; 1">
<g id="Group">
<path id="Vector" d="M50 100.656C77.6142 100.656 100 78.2705 100 50.6562C100 23.042 77.6142 0.65625 50 0.65625C22.3858 0.65625 0 23.042 0 50.6562C0 78.2705 22.3858 100.656 50 100.656Z" fill="#0B4B49"/>
<g id="Clip path group">
<mask id="mask0_1373_3082" style="mask-type:luminance" maskUnits="userSpaceOnUse" x="0" y="0" width="100" height="101">
<g id="clippath">
<path id="Vector_2" d="M50 100.656C77.6142 100.656 100 78.2705 100 50.6562C100 23.042 77.6142 0.65625 50 0.65625C22.3858 0.65625 0 23.042 0 50.6562C0 78.2705 22.3858 100.656 50 100.656Z" fill="white"/>
</g>
</mask>
<g mask="url(#mask0_1373_3082)">
<g id="Group_2">
<g id="Group_3">
<path id="Vector_3" d="M49.99 90.6563C49.65 90.6563 49.31 90.4863 49.08 90.2063L22 55.1963C21.72 54.7963 21.66 54.2363 22 53.8363L26.02 48.3463L14.52 41.1563C14.24 40.9863 14.01 40.6463 14.01 40.2463C14.01 39.8463 14.12 39.5063 14.41 39.2863L30.95 25.4663C31.23 25.2363 31.63 25.1263 32.03 25.2363C32.37 25.3463 32.65 25.6363 32.77 26.0263L51.07 89.1263C51.24 89.6363 50.96 90.2063 50.5 90.4263C50.33 90.5963 50.16 90.6563 49.99 90.6563ZM24.27 54.4563L47.27 84.1363L31.08 28.4063L17.09 40.0763L28.19 47.0463C28.47 47.2163 28.64 47.4963 28.7 47.7863C28.76 48.0763 28.7 48.4063 28.53 48.6963L24.28 54.4763L24.27 54.4563Z" fill="white" stroke="white" stroke-linecap="round" stroke-linejoin="round"/>
<path id="Vector_4" d="M49.99 90.6563C49.82 90.6563 49.65 90.5963 49.48 90.5463C48.97 90.3163 48.74 89.7563 48.91 89.2463L67.21 26.0863C67.32 25.7463 67.61 25.4063 67.95 25.2963C68.29 25.1863 68.69 25.2363 69.03 25.5263L85.57 39.3463C85.85 39.5763 86.02 39.9163 85.97 40.3063C85.92 40.6963 85.74 40.9863 85.46 41.2163L74.02 48.3563L78.04 53.8463C78.32 54.2463 78.32 54.8063 78.04 55.2063L50.91 90.2663C50.68 90.4963 50.34 90.6663 50 90.6663L49.99 90.6563ZM68.91 28.4063L52.71 84.1463L75.65 54.4663L71.4 48.6863C71.23 48.4563 71.12 48.1163 71.23 47.7763C71.34 47.4363 71.46 47.2063 71.74 47.0363L82.84 40.0663L68.91 28.3963V28.4063ZM41.32 30.3363C40.3 30.3363 39.9 29.9963 39.62 29.8263C37.98 28.5763 37.81 25.4663 37.81 24.5063C37.81 23.5463 37.92 20.4263 39.62 19.1863C40.19 18.7863 41.77 17.5963 48.68 21.3363C49.02 21.5063 49.25 21.8463 49.25 22.2463C49.31 22.6463 49.14 22.9863 48.85 23.2063C48.51 23.6063 48.28 24.0563 48.28 24.5663C48.28 25.0763 48.51 25.5263 48.9 25.8663C49.18 26.0963 49.35 26.4863 49.3 26.8263C49.24 27.2263 49.02 27.5063 48.73 27.7363C44.82 29.8363 42.61 30.3463 41.31 30.3463L41.32 30.3363ZM41.32 20.9863C41.15 20.9863 41.04 20.9863 40.98 21.0463C40.64 21.3263 40.13 22.5763 40.13 24.5563C40.13 26.5363 40.64 27.7863 40.98 28.0663C41.32 28.2963 43.08 28.0663 46.42 26.3663C46.14 25.7963 46.02 25.2363 46.02 24.6063C46.02 23.9763 46.19 23.3563 46.42 22.8463C43.76 21.3763 42.06 20.9763 41.32 20.9763V20.9863ZM58.65 30.3363C57.35 30.3363 55.14 29.7663 51.29 27.6763C50.95 27.5063 50.72 27.1663 50.72 26.7663C50.66 26.3663 50.83 26.0263 51.12 25.8063C51.52 25.4663 51.74 25.0163 51.74 24.5063C51.74 23.9963 51.51 23.5463 51.12 23.2063C50.84 22.9763 50.67 22.5863 50.72 22.2463C50.78 21.8463 51 21.5663 51.29 21.3363C58.2 17.5363 59.84 18.7863 60.35 19.1863C61.99 20.4363 62.16 23.5463 62.16 24.5063C62.16 25.4663 62.05 28.5863 60.35 29.8263C60.07 30.0563 59.61 30.3363 58.65 30.3363ZM53.5 26.3163C56.9 28.0163 58.65 28.2463 58.99 28.0163C59.33 27.7363 59.84 26.4863 59.84 24.5063C59.84 22.5263 59.33 21.2763 58.99 20.9963C58.65 20.8263 56.89 20.9963 53.5 22.6963C53.78 23.2663 53.9 23.8263 53.9 24.4563C53.96 25.1963 53.79 25.7563 53.5 26.3263V26.3163Z" fill="white" stroke="white" stroke-linecap="round" stroke-linejoin="round"/>
<path id="Vector_5" d="M49.99 28.4564C47.84 28.4564 46.02 26.6964 46.02 24.4864C46.02 22.2764 47.78 20.5164 49.99 20.5164C52.2 20.5164 53.96 22.2764 53.96 24.4864C53.96 26.6964 52.15 28.4564 49.99 28.4564Z" fill="white" stroke="white" stroke-linecap="round" stroke-linejoin="round"/>
</g>
</g>
</g>
</g>
</g>
</g>
</g>
<defs>
<clipPath id="clip0_1373_3082">
<rect width="100" height="100" fill="white" transform="translate(0 0.65625)"/>
</clipPath>
</defs>
</svg>
