<svg width="100" height="101" viewBox="0 0 100 101" fill="none" xmlns="http://www.w3.org/2000/svg">
<g id="&#208;&#160;&#208;&#181;&#209;&#129;&#209;&#131;&#209;&#128;&#209;&#129; 5-200 1" clip-path="url(#clip0_1373_3046)">
<g id="&#208;&#168;&#208;&#176;&#209;&#128; 1">
<g id="Group">
<path id="Vector" d="M50 100.656C77.6142 100.656 100 78.2705 100 50.6562C100 23.042 77.6142 0.65625 50 0.65625C22.3858 0.65625 0 23.042 0 50.6562C0 78.2705 22.3858 100.656 50 100.656Z" fill="#0B4B49"/>
<g id="Clip path group">
<mask id="mask0_1373_3046" style="mask-type:luminance" maskUnits="userSpaceOnUse" x="0" y="0" width="100" height="101">
<g id="clippath">
<path id="Vector_2" d="M50 100.656C77.6142 100.656 100 78.2705 100 50.6562C100 23.042 77.6142 0.65625 50 0.65625C22.3858 0.65625 0 23.042 0 50.6562C0 78.2705 22.3858 100.656 50 100.656Z" fill="white"/>
</g>
</mask>
<g mask="url(#mask0_1373_3046)">
<g id="Group_2">
<g id="Group_3">
<path id="Vector_3" d="M10.74 61.1563C12.57 62.4563 20.33 68.0863 23.07 69.8263C31.74 76.7563 41.79 83.6963 43.61 84.9963C45.43 86.2963 47.72 87.1664 50.46 87.1664C52.29 87.1664 54.57 86.7363 55.03 84.9963C57.77 86.7263 61.42 86.2964 63.25 83.6964C64.16 82.8264 64.16 81.5264 64.16 80.6664C66.9 83.2664 73.75 80.6663 73.29 76.3363C76.03 78.9363 82.88 74.6063 80.14 69.8363C76.49 64.2063 59.6 52.5063 52.75 46.0063C50.47 47.3063 48.18 48.1763 45.9 48.1763C43.16 51.6463 38.6 53.3763 34.49 52.0763C29.47 49.0463 34.03 42.9763 38.14 39.0763C45.44 31.7063 52.29 28.6763 61.42 33.0063C67.35 35.6063 73.29 37.7763 79.22 39.5063M41.79 35.1763C36.31 35.1763 24.9 36.4763 20.33 36.4763" stroke="white" stroke-width="4" stroke-linecap="round" stroke-linejoin="round"/>
<path id="Vector_4" d="M80.13 70.2563L89.26 65.4863" stroke="white" stroke-width="4" stroke-linecap="round" stroke-linejoin="round"/>
<path id="Vector_5" d="M72.83 76.3262C70.55 74.5962 59.13 63.3262 59.13 63.3262M63.7 80.6562C60.96 78.4862 53.66 71.1262 52.29 69.8262M54.57 84.9962C51.37 82.3962 45.44 76.7663 43.16 74.1663M-2.5 22.1562L16.22 28.6562C19.87 29.9562 21.7 33.4262 20.33 36.8862L10.74 61.1562C9.83 63.7562 7.09 65.4863 4.35 65.4863H-2.5V22.1562ZM102.5 26.4862L83.78 32.9863C80.13 34.2863 78.3 37.7563 79.67 41.2163L89.26 65.4863C90.17 68.0863 92.91 69.8163 95.65 69.8163H102.5V26.4862Z" stroke="white" stroke-width="4" stroke-linecap="round" stroke-linejoin="round"/>
</g>
</g>
</g>
</g>
</g>
</g>
</g>
<defs>
<clipPath id="clip0_1373_3046">
<rect width="100" height="100" fill="white" transform="translate(0 0.65625)"/>
</clipPath>
</defs>
</svg>
