<svg width="26" height="26" viewBox="0 0 26 26" fill="none" xmlns="http://www.w3.org/2000/svg">
<path d="M23.9582 1.31567L23.9581 1.31567L1.84354 1.31567C1.36235 1.31596 0.972194 1.70628 0.97229 2.18774L0.97229 2.18784L0.97229 24.3024C0.972579 24.7836 1.36289 25.1737 1.84435 25.1736L1.84445 25.1736L13.2509 25.1736V16.5606H10.5223H10.0223V16.0606V12.2979V11.7979H10.5223H13.2509V9.52885C13.2509 7.81995 13.7749 6.4412 14.7377 5.48956C15.6989 4.53945 17.0421 4.06986 18.5758 4.06986C19.9666 4.06986 21.1678 4.17317 21.5363 4.22214L21.9705 4.27983V4.71778V8.074V8.574H21.4705H19.4952C18.7826 8.574 18.4964 8.74392 18.3631 8.90217C18.2137 9.0797 18.135 9.3794 18.135 9.90148V11.7979H21.3612H21.9299L21.8571 12.3619L21.3716 16.1246L21.3153 16.5606H20.8757H18.135V25.1736H23.9581H23.9582C24.4397 25.1737 24.8301 24.7835 24.8302 24.3021V24.302V24.302V24.302L23.9582 1.31567ZM23.9582 1.31567C24.4397 1.31558 24.8299 1.70569 24.8302 2.18662C24.8302 2.18669 24.8302 2.18676 24.8302 2.18682V24.3015V24.3015V24.3015M23.9582 1.31567L24.8302 24.3015M24.8302 24.3015V24.3015M24.8302 24.3015V24.3015M24.8302 24.3015V24.3015M24.8302 24.3015V24.3015M24.8302 24.3015V24.3016M24.8302 24.3015V24.3016M24.8302 24.3016V24.3016M24.8302 24.3016V24.3016M24.8302 24.3016V24.3016M24.8302 24.3016V24.3016M24.8302 24.3016V24.3016M24.8302 24.3016V24.3016M24.8302 24.3016V24.3016M24.8302 24.3016V24.3016M24.8302 24.3016V24.3016M24.8302 24.3016V24.3016M24.8302 24.3016V24.3016M24.8302 24.3016V24.3016M24.8302 24.3016V24.3017M24.8302 24.3016V24.3017M24.8302 24.3017V24.3017M24.8302 24.3017V24.3017M24.8302 24.3017V24.3017M24.8302 24.3017V24.3017M24.8302 24.3017V24.3017M24.8302 24.3017V24.3017M24.8302 24.3017V24.3017M24.8302 24.3017V24.3017M24.8302 24.3017V24.3017M24.8302 24.3017V24.3017M24.8302 24.3017V24.3018M24.8302 24.3017V24.3018M24.8302 24.3018V24.3018M24.8302 24.3018V24.3018M24.8302 24.3018V24.3018M24.8302 24.3018V24.3018M24.8302 24.3018V24.3018M24.8302 24.3018V24.3018M24.8302 24.3018V24.3018M24.8302 24.3018V24.3018M24.8302 24.3018V24.3018M24.8302 24.3018V24.3018M24.8302 24.3018V24.3018M24.8302 24.3018V24.3018M24.8302 24.3018V24.3019M24.8302 24.3018V24.3019M24.8302 24.3019V24.3019M24.8302 24.3019V24.3019M24.8302 24.3019V24.3019M24.8302 24.3019V24.3019M24.8302 24.3019V24.3019M24.8302 24.3019V24.3019M24.8302 24.3019V24.3019M24.8302 24.3019V24.3019M24.8302 24.3019V24.3019M24.8302 24.3019V24.3019M24.8302 24.3019V24.302M24.8302 24.3019V24.302M24.8302 24.302V24.302V24.302Z" stroke="#081F62"/>
</svg>
