<svg width="26" height="26" viewBox="0 0 26 26" fill="none" xmlns="http://www.w3.org/2000/svg">
<path d="M23.7863 1.31567L23.7864 1.31567C24.2679 1.31558 24.6582 1.70569 24.6585 2.18662C24.6585 2.18669 24.6585 2.18676 24.6585 2.18682V24.302C24.6584 24.7835 24.268 25.1737 23.7864 25.1736H23.7863H17.9632V16.5606H20.704H21.1436L21.1999 16.1246L21.6854 12.3619L21.7581 11.7979H21.1895H17.9632V9.90148C17.9632 9.3794 18.0419 9.0797 18.1914 8.90217C18.3246 8.74392 18.6108 8.574 19.3235 8.574H21.2987H21.7987V8.074V4.71778V4.27983L21.3646 4.22214C20.9961 4.17317 19.7948 4.06986 18.404 4.06986C16.8704 4.06986 15.5271 4.53945 14.5659 5.48956C13.6031 6.4412 13.0792 7.81995 13.0792 9.52885V11.7979H10.3505H9.85053V12.2979V16.0606V16.5606H10.3505H13.0792V25.1736H1.6727H1.6726C1.19114 25.1737 0.800826 24.7836 0.800537 24.3024L0.800537 2.18784L0.800537 2.18774C0.800441 1.70628 1.1906 1.31596 1.67179 1.31567L23.7863 1.31567Z" fill="white" stroke="#081F62"/>
<rect x="6" y="3" width="18" height="21.7" fill="white"/>
<path fill-rule="evenodd" clip-rule="evenodd" d="M14.0774 6.57748C14.7862 5.86867 15.7475 5.47046 16.7499 5.47046C17.7524 5.47046 18.7137 5.86867 19.4225 6.57748C20.1314 7.28629 20.5295 8.24765 20.5295 9.25007C20.5295 10.2525 20.1314 11.2138 19.4225 11.9226L16.092 15.2531C15.7435 15.608 15.3279 15.89 14.8694 16.0826C14.4094 16.276 13.9155 16.3755 13.4166 16.3755C12.9177 16.3755 12.4239 16.276 11.9639 16.0826C11.5039 15.8894 11.0872 15.6063 10.738 15.25C10.4159 14.9212 10.4213 14.3936 10.7501 14.0715C11.0788 13.7494 11.6064 13.7548 11.9285 14.0836C12.1225 14.2815 12.354 14.4388 12.6095 14.5461C12.865 14.6536 13.1394 14.7088 13.4166 14.7088C13.6938 14.7088 13.9682 14.6536 14.2237 14.5461C14.4792 14.4388 14.7107 14.2815 14.9047 14.0836L14.9107 14.0775L18.244 10.7441C18.6403 10.3479 18.8629 9.81046 18.8629 9.25007C18.8629 8.68968 18.6403 8.15224 18.244 7.75599C17.8478 7.35973 17.3104 7.13713 16.7499 7.13713C16.1895 7.13713 15.6521 7.35973 15.2559 7.75599L14.8392 8.17266C14.5138 8.49809 13.9861 8.49809 13.6607 8.17266C13.3353 7.84722 13.3353 7.31958 13.6607 6.99414L14.0774 6.57748Z" fill="#081F62"/>
<path fill-rule="evenodd" clip-rule="evenodd" d="M11.1306 9.91746C11.5905 9.72418 12.0844 9.62463 12.5833 9.62463C13.0822 9.62463 13.576 9.72418 14.036 9.91746C14.4959 10.1107 14.9127 10.3938 15.2619 10.7502C15.5839 11.0789 15.5785 11.6065 15.2499 11.9287C14.9211 12.2508 14.3934 12.2453 14.0714 11.9166C13.8774 11.7187 13.6459 11.5613 13.3904 11.454C13.1349 11.3466 12.8604 11.2913 12.5833 11.2913C12.3061 11.2913 12.0317 11.3466 11.7762 11.454C11.5207 11.5613 11.2892 11.7187 11.0952 11.9166L11.0892 11.9227L7.75587 15.256C7.35961 15.6523 7.137 16.1897 7.137 16.7501C7.137 17.3104 7.35961 17.8479 7.75587 18.2442C8.15212 18.6404 8.68955 18.863 9.24995 18.863C9.81034 18.863 10.3478 18.6404 10.744 18.2442L11.1607 17.8275C11.4861 17.502 12.0138 17.502 12.3392 17.8275C12.6646 18.1529 12.6646 18.6806 12.3392 19.006L11.9225 19.4227C11.2137 20.1315 10.2524 20.5297 9.24995 20.5297C8.24753 20.5297 7.28617 20.1315 6.57735 19.4227C5.86855 18.7138 5.47034 17.7525 5.47034 16.7501C5.47034 15.7477 5.86855 14.7863 6.57735 14.0775L9.90785 10.747C10.2564 10.3921 10.672 10.1101 11.1306 9.91746Z" fill="#081F62"/>
</svg>
