<svg width="28" height="27" viewBox="0 0 28 27" fill="none" xmlns="http://www.w3.org/2000/svg">
<path d="M19.2278 8.72169L9.5021 14.7537C9.33087 14.8599 9.25296 15.0684 9.31272 15.2609L10.6173 19.4647C10.6447 19.553 10.7734 19.5408 10.7838 19.4489L11.1009 16.6301C11.1131 16.5212 11.1653 16.4207 11.2474 16.3481L19.4834 9.06514C19.6806 8.89083 19.4516 8.58293 19.2278 8.72169Z" fill="#081F62"/>
<path d="M20.3925 21.4654L20.3925 21.4654L23.4198 6.99211C23.6494 5.89449 22.5697 4.98006 21.5248 5.38719L21.5248 5.38719L3.7938 12.2968L3.79378 12.2968C2.77536 12.6937 2.83714 14.1552 3.88542 14.4647L8.13578 15.7198L9.73728 20.8016L10.2142 20.6513L9.73728 20.8016C10.0264 21.719 11.1891 21.9972 11.8621 21.3099L13.8882 19.2413L18.1093 22.3397C18.9619 22.9655 20.176 22.5005 20.3925 21.4654ZM1.32825 26.0152V0.5H26.8434V26.0152H1.32825Z" stroke="#081F62"/>
</svg>
