<svg width="8" height="10" viewBox="0 0 8 10" fill="none" xmlns="http://www.w3.org/2000/svg">
<path id="Union" fill-rule="evenodd" clip-rule="evenodd" d="M4.83582 0.75C4.83582 0.335786 4.50003 0 4.08582 0C3.6716 0 3.33582 0.335786 3.33582 0.75V7.52479L1.61615 5.80512C1.32325 5.51223 0.848379 5.51223 0.555485 5.80512C0.262592 6.09801 0.262592 6.57289 0.555485 6.86578L3.38391 9.69421C3.55201 9.8623 3.78004 9.93392 3.99922 9.90908C4.21889 9.93446 4.44763 9.8629 4.61615 9.69439L7.44457 6.86597C7.73747 6.57307 7.73747 6.0982 7.44457 5.80531C7.15168 5.51241 6.67681 5.51241 6.38391 5.80531L4.83582 7.3534V0.75Z" fill="#0B4B49"/>
</svg>
