<svg width="27" height="27" viewBox="0 0 27 27" fill="none" xmlns="http://www.w3.org/2000/svg">
<path d="M22.1284 15.8757L22.1302 15.8686L22.1317 15.8614C22.6708 13.3997 22.6708 10.9017 22.1317 8.43992L22.1302 8.43274L22.1284 8.42561L22.1235 8.40586C22.1235 8.40585 22.1234 8.40584 22.1234 8.40583C21.8825 7.43191 21.2351 6.46578 20.4402 5.70091C19.6447 4.93551 18.6495 4.32165 17.6579 4.10549L17.6579 4.10546L17.6522 4.10429L17.6325 4.10022L17.6325 4.10017L17.6253 4.0988C14.7271 3.54591 11.7876 3.5459 8.88987 4.09881L8.88987 4.09879L8.88553 4.09965L8.86517 4.10373L8.86515 4.10365L8.8567 4.1055C7.86536 4.32166 6.87036 4.93554 6.07489 5.70091C5.27994 6.46577 4.63244 7.43186 4.39122 8.40571L4.39107 8.40567L4.38845 8.41746L4.3838 8.43841L4.38347 8.43992C3.8444 10.9017 3.8444 13.3996 4.38346 15.8614L4.3838 15.8629L4.38845 15.8838L4.38831 15.8839L4.39122 15.8956C4.62233 16.8286 5.22616 17.7534 5.97302 18.5C6.6252 19.152 7.41936 19.7012 8.23806 20.0101V21.561C8.23806 22.7026 9.62946 23.264 10.4212 22.4397L12.1993 20.5914C12.5512 20.6079 12.9041 20.6169 13.2576 20.6169C14.717 20.6169 16.1767 20.4789 17.6253 20.2025L17.6253 20.2026L17.6324 20.2011L17.6522 20.1971L17.6522 20.1971L17.6579 20.1959C18.6495 19.9797 19.6447 19.3658 20.4402 18.6004C21.2351 17.8356 21.8825 16.8694 22.1235 15.8955L22.1284 15.8757ZM0.5 26.0152V0.5H26.0152V26.0152H0.5Z" fill="white" stroke="#081F62"/>
<path d="M17.2262 6.1312C14.5929 5.63026 11.9224 5.63026 9.28851 6.1312C8.13652 6.38778 6.68721 7.77658 6.40387 8.89366C5.9326 11.0551 5.9326 13.2462 6.40387 15.4077C6.68721 16.5248 8.13652 17.9136 9.28851 18.1701C9.2888 18.1702 9.28909 18.1703 9.28938 18.1703C9.3407 18.1804 9.37811 18.2248 9.37811 18.2771V21.4435C9.37811 21.6017 9.57127 21.6797 9.68124 21.5651L11.1852 20.0215C11.1852 20.0215 12.3837 18.7912 12.5992 18.57C12.6203 18.5484 12.6494 18.5367 12.6795 18.5375C14.198 18.5796 15.7181 18.4569 17.2262 18.1702C18.3782 17.9136 19.8281 16.5248 20.1109 15.4077C20.5827 13.2463 20.5827 11.0552 20.1109 8.89372C19.828 7.77658 18.3788 6.38778 17.2262 6.1312ZM17.2664 15.5689C17.036 16.0581 16.7007 16.4651 16.2171 16.7248C16.0807 16.7982 15.9176 16.8218 15.7636 16.8693C15.5865 16.8155 15.4177 16.7794 15.261 16.7143C13.6368 16.0405 12.142 15.1711 10.9579 13.8385C10.2846 13.0806 9.75751 12.2251 9.31207 11.3197C9.10082 10.8903 8.92278 10.4441 8.74131 10.0008C8.57579 9.59655 8.81957 9.17893 9.07621 8.87435C9.31702 8.5885 9.6269 8.36974 9.96249 8.20852C10.2244 8.08267 10.4828 8.15522 10.6741 8.37724C11.0877 8.85724 11.4675 9.36179 11.7751 9.91818C11.9643 10.2604 11.9124 10.6787 11.5696 10.9116C11.4863 10.9682 11.4103 11.0347 11.3327 11.0986C11.2646 11.1547 11.2006 11.2113 11.1539 11.2871C11.0686 11.4259 11.0646 11.5897 11.1195 11.7406C11.5422 12.9024 12.2548 13.8058 13.4241 14.2923C13.6113 14.3702 13.7992 14.4608 14.0147 14.4357C14.3757 14.3935 14.4926 13.9975 14.7456 13.7906C14.9929 13.5885 15.3089 13.5858 15.5752 13.7543C15.8416 13.9229 16.0999 14.1039 16.3566 14.2869C16.6086 14.4664 16.8594 14.6421 17.0919 14.8467C17.3152 15.0435 17.3922 15.3017 17.2664 15.5689ZM15.1693 11.7831C15.0684 11.7849 15.1081 11.7829 15.1464 11.7818C14.9839 11.7761 14.8955 11.6804 14.8781 11.5249C14.8653 11.4113 14.8553 11.2962 14.8282 11.1856C14.7747 10.9679 14.659 10.7661 14.4759 10.6327C14.3895 10.5697 14.2915 10.5237 14.1889 10.4942C14.0585 10.4565 13.9231 10.4669 13.793 10.435C13.6517 10.4004 13.5736 10.286 13.5958 10.1535C13.6159 10.0329 13.7333 9.93872 13.8651 9.94826C14.6888 10.0077 15.2774 10.4336 15.3614 11.4033C15.3674 11.4717 15.3744 11.544 15.3592 11.6094C15.3345 11.7158 15.2585 11.7712 15.1816 11.7813C15.1879 11.7814 15.1867 11.7819 15.1693 11.7831ZM14.6571 9.56525C14.4044 9.4415 14.131 9.36459 13.854 9.31874C13.7329 9.29872 13.6105 9.28656 13.4889 9.26963C13.3414 9.24915 13.2628 9.15519 13.2697 9.00991C13.2762 8.87376 13.3757 8.77584 13.5241 8.78422C14.0116 8.81192 14.4826 8.91729 14.916 9.14681C15.7975 9.6136 16.301 10.3504 16.4479 11.3343C16.4546 11.3788 16.4653 11.423 16.4686 11.4677C16.477 11.5782 16.4822 11.6888 16.4907 11.8344C16.4872 11.8609 16.4853 11.9233 16.4699 11.9821C16.4135 12.1954 16.0901 12.2221 16.0156 12.0068C15.9936 11.9429 15.9903 11.8702 15.9902 11.8015C15.9894 11.3515 15.8916 10.902 15.6647 10.5105C15.4314 10.1082 15.075 9.76994 14.6571 9.56525ZM17.3807 12.6059C17.2104 12.6079 17.1338 12.4654 17.1227 12.3127C17.1008 12.0104 17.0857 11.7067 17.044 11.4069C16.8241 9.82434 15.5621 8.51502 13.9869 8.23406C13.7499 8.19176 13.5072 8.18065 13.2671 8.15546C13.1153 8.13951 12.9165 8.13032 12.8829 7.94164C12.8547 7.78344 12.9882 7.65748 13.1389 7.64939C13.1798 7.64718 13.221 7.64904 13.2621 7.64922C15.3023 7.70641 13.3866 7.65364 13.2676 7.64951C15.3896 7.71136 17.1319 9.12051 17.5055 11.219C17.5692 11.5769 17.5919 11.9428 17.6202 12.306C17.6321 12.4587 17.5456 12.6039 17.3807 12.6059Z" fill="#081F62"/>
</svg>
