<svg width="34" height="34" viewBox="0 0 34 34" fill="none" xmlns="http://www.w3.org/2000/svg">
<path d="M25.5456 29.6756H4.91436C4.36864 29.675 3.84546 29.4579 3.45958 29.072C3.0737 28.6861 2.85663 28.163 2.856 27.6172V6.63924C2.85672 6.02573 3.10075 5.43757 3.53456 5.00376C3.96838 4.56995 4.55654 4.32592 5.17004 4.3252H27.0093C28.1053 4.32654 29.1561 4.76251 29.9312 5.53748C30.7063 6.31246 31.1425 7.36319 31.144 8.45926V24.0772C31.1434 24.6229 30.9263 25.1461 30.5404 25.5319C30.1545 25.9178 29.6314 26.1349 29.0856 26.1355H27.6039V27.6172C27.6033 28.163 27.3862 28.6861 27.0003 29.072C26.6145 29.4579 26.0913 29.675 25.5456 29.6756ZM3.944 8.60206V27.6172C3.94436 27.8745 4.04671 28.1211 4.22861 28.303C4.41051 28.4849 4.65712 28.5872 4.91436 28.5876H25.5456C25.8028 28.5873 26.0495 28.485 26.2314 28.3031C26.4133 28.1212 26.5157 27.8745 26.5159 27.6172V9.92296C26.5157 9.66565 26.4133 9.41896 26.2314 9.23699C26.0495 9.05501 25.8029 8.95262 25.5456 8.95226H5.17004C4.73653 8.95336 4.31153 8.83196 3.944 8.60206ZM27.6039 25.0475H29.0856C29.3429 25.0472 29.5896 24.9449 29.7715 24.763C29.9534 24.5811 30.0557 24.3344 30.056 24.0772V8.45926C30.0551 7.65149 29.7338 6.87706 29.1626 6.30588C28.5915 5.7347 27.817 5.41342 27.0093 5.41252H5.17004C5.00734 5.40981 4.84573 5.43951 4.69462 5.4999C4.54352 5.56029 4.40595 5.65015 4.28993 5.76426C4.17392 5.87836 4.08177 6.01441 4.01888 6.16449C3.95598 6.31457 3.92359 6.47566 3.92359 6.63839C3.92359 6.80111 3.95598 6.96221 4.01888 7.11228C4.08177 7.26236 4.17392 7.39841 4.28993 7.51252C4.40595 7.62662 4.54352 7.71648 4.69462 7.77687C4.84573 7.83726 5.00734 7.86697 5.17004 7.86426H25.5456C26.0913 7.86489 26.6146 8.082 27.0005 8.46795C27.3864 8.85391 27.6034 9.37718 27.6039 9.92296V25.0475Z" fill="#081F62"/>
<path d="M22.678 12.9833H7.786C7.64172 12.9833 7.50335 12.926 7.40133 12.8239C7.29931 12.7219 7.242 12.5835 7.242 12.4393C7.242 12.295 7.29931 12.1566 7.40133 12.0546C7.50335 11.9526 7.64172 11.8953 7.786 11.8953H22.678C22.8223 11.8953 22.9606 11.9526 23.0627 12.0546C23.1647 12.1566 23.222 12.295 23.222 12.4393C23.222 12.5835 23.1647 12.7219 23.0627 12.8239C22.9606 12.926 22.8223 12.9833 22.678 12.9833Z" fill="#081F62"/>
<path d="M9.10996 14.4075C8.96568 14.4075 8.82731 14.3502 8.72529 14.2482C8.62327 14.1462 8.56596 14.0078 8.56596 13.8635V12.4393C8.56596 12.295 8.62327 12.1566 8.72529 12.0546C8.82731 11.9526 8.96568 11.8953 9.10996 11.8953C9.25423 11.8953 9.3926 11.9526 9.49462 12.0546C9.59664 12.1566 9.65396 12.295 9.65396 12.4393V13.8635C9.65396 14.0078 9.59664 14.1462 9.49462 14.2482C9.3926 14.3502 9.25423 14.4075 9.10996 14.4075Z" fill="#081F62"/>
<path d="M22.678 19.7078H7.786C7.64172 19.7078 7.50335 19.6504 7.40133 19.5484C7.29931 19.4464 7.242 19.308 7.242 19.1638V16.388C7.242 16.2437 7.29931 16.1053 7.40133 16.0033C7.50335 15.9013 7.64172 15.844 7.786 15.844H22.678C22.8223 15.844 22.9606 15.9013 23.0627 16.0033C23.1647 16.1053 23.222 16.2437 23.222 16.388V19.1631C23.2221 19.2346 23.2081 19.3054 23.1808 19.3715C23.1535 19.4375 23.1134 19.4976 23.0629 19.5482C23.0124 19.5988 22.9524 19.6389 22.8863 19.6663C22.8203 19.6937 22.7495 19.7078 22.678 19.7078ZM8.33 18.6198H22.134V16.932H8.33V18.6198Z" fill="#081F62"/>
</svg>
