<svg width="23" height="23" viewBox="0 0 23 23" fill="none" xmlns="http://www.w3.org/2000/svg">
<g clip-path="url(#clip0_94_1706)">
<path d="M14.0402 8.93124C13.8021 8.93124 13.6089 9.12447 13.6089 9.36255C13.6089 9.60063 13.8021 9.79385 14.0402 9.79385C14.2783 9.79385 14.4715 9.60063 14.4715 9.36255C14.4715 9.12447 14.2783 8.93124 14.0402 8.93124Z" fill="#081F62"/>
<path d="M22.24 19.8656L16.4875 14.1131C17.4246 12.7015 17.9182 11.0669 17.9182 9.3622C17.9182 4.60953 14.0516 0.74292 9.29897 0.74292C4.5463 0.74292 0.679688 4.60953 0.679688 9.3622C0.679688 14.1149 4.5463 17.9815 9.29897 17.9815C11.0037 17.9815 12.6383 17.4878 14.0499 16.5508L15.6399 18.1408C15.6401 18.141 15.6403 18.1412 15.6406 18.1415L19.8023 22.3032C20.1281 22.6289 20.5609 22.8083 21.0212 22.8083C21.4815 22.8083 21.9143 22.6289 22.2399 22.3034C22.5656 21.9779 22.745 21.545 22.745 21.0844C22.745 20.6239 22.5656 20.191 22.24 19.8656ZM13.8472 15.6425L13.8471 15.6426C12.5168 16.6088 10.9442 17.1196 9.29897 17.1196C5.02156 17.1196 1.54162 13.6396 1.54162 9.3622C1.54162 5.0848 5.02156 1.60485 9.29897 1.60485C13.5764 1.60485 17.0563 5.0848 17.0563 9.3622C17.0563 11.0074 16.5456 12.5801 15.5793 13.9104C15.0959 14.5763 14.5132 15.1591 13.8472 15.6425ZM14.7514 16.0332C15.1974 15.6683 15.6051 15.2606 15.97 14.8146L17.1927 16.0373C16.8208 16.4761 16.4129 16.8841 15.974 17.2559L14.7514 16.0332ZM21.6305 21.6938C21.4676 21.8567 21.2512 21.9464 21.0212 21.9464C20.7911 21.9464 20.5748 21.8567 20.4118 21.6938L16.5851 17.867C17.0215 17.4925 17.4292 17.0848 17.8037 16.6484L21.6306 20.4753C21.7934 20.6379 21.8831 20.8542 21.8831 21.0844C21.8831 21.3146 21.7934 21.5309 21.6305 21.6938Z" fill="#081F62"/>
<path d="M9.29923 2.46677C5.49705 2.46677 2.40381 5.56001 2.40381 9.36219C2.40381 13.1644 5.49705 16.2576 9.29923 16.2576C13.1014 16.2576 16.1947 13.1644 16.1947 9.36219C16.1947 5.56001 13.1014 2.46677 9.29923 2.46677ZM9.29923 15.3957C5.97236 15.3957 3.26574 12.6891 3.26574 9.36219C3.26574 6.03532 5.97236 3.32869 9.29923 3.32869C12.6261 3.32869 15.3327 6.03532 15.3327 9.36219C15.3327 12.6891 12.6261 15.3957 9.29923 15.3957Z" fill="#081F62"/>
<path d="M14.1287 7.51221C13.7576 6.54634 13.1115 5.72052 12.2601 5.12411C11.3884 4.51344 10.3645 4.19064 9.29913 4.19064C9.06115 4.19064 8.86816 4.38363 8.86816 4.62161C8.86816 4.85959 9.06115 5.05257 9.29913 5.05257C11.0703 5.05257 12.6878 6.16523 13.3242 7.82139C13.39 7.99274 13.5533 8.09789 13.7266 8.09789C13.7779 8.09789 13.8302 8.08863 13.881 8.0691C14.1032 7.98373 14.2141 7.73442 14.1287 7.51221Z" fill="#081F62"/>
</g>
<defs>
<clipPath id="clip0_94_1706">
<rect width="22.0654" height="22.0654" fill="white" transform="translate(0.679688 0.74292)"/>
</clipPath>
</defs>
</svg>
